<?xml version="1.0" encoding="UTF-8" standalone="no"?>
<!DOCTYPE svg PUBLIC "-//W3C//DTD SVG 1.1//EN"
 "http://www.w3.org/Graphics/SVG/1.1/DTD/svg11.dtd">
<!-- Generated by graphviz version 12.1.1 (20240910.0053)
 -->
<!-- Title: INFRA Pages: 1 -->
<svg width="288pt" height="296pt"
 viewBox="0.00 0.00 287.76 296.00" xmlns="http://www.w3.org/2000/svg" xmlns:xlink="http://www.w3.org/1999/xlink">
<g id="graph0" class="graph" transform="scale(1 1) rotate(0) translate(4 292)">
<title>INFRA</title>
<polygon fill="white" stroke="none" points="-4,4 -4,-292 283.76,-292 283.76,4 -4,4"/>
<!-- GameCharactersDynamoDBTable -->
<g id="node1" class="node">
<title>GameCharactersDynamoDBTable</title>
<path fill="#ffcfb3" stroke="black" stroke-width="2" d="M254.48,-65.45C254.48,-69.07 203.11,-72 139.88,-72 76.65,-72 25.29,-69.07 25.29,-65.45 25.29,-65.45 25.29,-6.55 25.29,-6.55 25.29,-2.93 76.65,0 139.88,0 203.11,0 254.48,-2.93 254.48,-6.55 254.48,-6.55 254.48,-65.45 254.48,-65.45"/>
<path fill="none" stroke="black" stroke-width="2" d="M254.48,-65.45C254.48,-61.84 203.11,-58.91 139.88,-58.91 76.65,-58.91 25.29,-61.84 25.29,-65.45"/>
<text text-anchor="middle" x="139.88" y="-40.2" font-family="Arial" font-size="14.00">GameCharactersDynamoDBTable</text>
<text text-anchor="middle" x="139.88" y="-23.4" font-family="Arial" font-size="14.00">(AWS::DynamoDB::Table)</text>
</g>
<!-- DynamoDbClient -->
<g id="node2" class="node">
<title>DynamoDbClient</title>
<path fill="#e6e6e6" stroke="black" stroke-width="2" d="M236.24,-180C236.24,-180 43.53,-180 43.53,-180 37.53,-180 31.53,-174 31.53,-168 31.53,-168 31.53,-120 31.53,-120 31.53,-114 37.53,-108 43.53,-108 43.53,-108 236.24,-108 236.24,-108 242.24,-108 248.24,-114 248.24,-120 248.24,-120 248.24,-168 248.24,-168 248.24,-174 242.24,-180 236.24,-180"/>
<text text-anchor="middle" x="139.88" y="-148.2" font-family="Arial" font-size="14.00">DynamoDbClient</text>
<text text-anchor="middle" x="139.88" y="-131.4" font-family="Arial" font-size="14.00">(AWS::SDK::DynamoDB::Client)</text>
</g>
<!-- DynamoDbClient&#45;&gt;GameCharactersDynamoDBTable -->
<g id="edge1" class="edge">
<title>DynamoDbClient&#45;&gt;GameCharactersDynamoDBTable</title>
<path fill="none" stroke="black" d="M139.88,-107.7C139.88,-99.93 139.88,-91.57 139.88,-83.43"/>
<polygon fill="black" stroke="black" points="143.38,-83.66 139.88,-73.66 136.38,-83.66 143.38,-83.66"/>
</g>
<!-- DynamoDbEnhancedClient -->
<g id="node3" class="node">
<title>DynamoDbEnhancedClient</title>
<path fill="#e6e6e6" stroke="black" stroke-width="2" d="M267.76,-288C267.76,-288 12,-288 12,-288 6,-288 0,-282 0,-276 0,-276 0,-228 0,-228 0,-222 6,-216 12,-216 12,-216 267.76,-216 267.76,-216 273.76,-216 279.76,-222 279.76,-228 279.76,-228 279.76,-276 279.76,-276 279.76,-282 273.76,-288 267.76,-288"/>
<text text-anchor="middle" x="139.88" y="-256.2" font-family="Arial" font-size="14.00">DynamoDbEnhancedClient</text>
<text text-anchor="middle" x="139.88" y="-239.4" font-family="Arial" font-size="14.00">(AWS::SDK::DynamoDB::EnhancedClient)</text>
</g>
<!-- DynamoDbEnhancedClient&#45;&gt;DynamoDbClient -->
<g id="edge2" class="edge">
<title>DynamoDbEnhancedClient&#45;&gt;DynamoDbClient</title>
<path fill="none" stroke="black" d="M139.88,-215.7C139.88,-207.93 139.88,-199.57 139.88,-191.43"/>
<polygon fill="black" stroke="black" points="143.38,-191.66 139.88,-181.66 136.38,-191.66 143.38,-191.66"/>
</g>
</g>
</svg>
